<svg xmlns="http://www.w3.org/2000/svg" xmlns:xlink="http://www.w3.org/1999/xlink" viewBox="0 0 928.2 1035"><defs><style>.cls-1{fill:#0a0a0a;}.cls-2{fill:#161616;opacity:0.44;}.cls-3{opacity:0.5;}.cls-4{fill:url(#Gradiente_sem_nome_31);}.cls-5{fill:url(#Gradiente_sem_nome_30);}.cls-6{fill:#00ff67;}</style><linearGradient id="Gradiente_sem_nome_31" x1="112.51" y1="540.62" x2="317.4" y2="540.62" gradientUnits="userSpaceOnUse"><stop offset="0.08" stop-color="#00ff6f" stop-opacity="0.9"/><stop offset="0.31" stop-color="#00fc6e" stop-opacity="0.89"/><stop offset="0.44" stop-color="#00f46a" stop-opacity="0.86"/><stop offset="0.54" stop-color="#01e564" stop-opacity="0.8"/><stop offset="0.64" stop-color="#02d05b" stop-opacity="0.73"/><stop offset="0.72" stop-color="#03b450" stop-opacity="0.63"/><stop offset="0.8" stop-color="#049242" stop-opacity="0.5"/><stop offset="0.87" stop-color="#066a32" stop-opacity="0.35"/><stop offset="0.94" stop-color="#083d1f" stop-opacity="0.19"/><stop offset="1" stop-color="#0a0a0a" stop-opacity="0"/></linearGradient><linearGradient id="Gradiente_sem_nome_30" x1="303.54" y1="550.22" x2="508.43" y2="550.22" gradientTransform="translate(1267.08 1091.19) rotate(180)" xlink:href="#Gradiente_sem_nome_31"/></defs><g id="Camada_2" data-name="Camada 2"><path class="cls-1" d="M79.45,331.09l-3,410a107.5,107.5,0,0,0,53.07,93.52L483,1042.21a107.55,107.55,0,0,0,107.53.8L947.09,840.67a107.57,107.57,0,0,0,54.46-92.73l3-410a107.51,107.51,0,0,0-53.07-93.52L598,36.82A107.54,107.54,0,0,0,490.47,36L133.91,238.37A107.51,107.51,0,0,0,79.45,331.09Z" transform="translate(-76.4 -22.02)"/><path class="cls-2" d="M485.37,37.54,143.47,232A117.72,117.72,0,0,0,127,243.33a30.51,30.51,0,0,0,3.73,49.82L516,520.76a48.1,48.1,0,0,0,48.29.4L953.06,300a30.51,30.51,0,0,0,4.55-49.74,118.58,118.58,0,0,0-16.29-11.62L602.67,38.51A116.84,116.84,0,0,0,485.37,37.54Z" transform="translate(-76.4 -22.02)"/><g class="cls-3"><path class="cls-4" d="M183,376.66Q188.1,260.09,317.4,260.09h0v70.13q-70.12,0-70.13,87.66,0,87.39-34.84,122.51a.31.31,0,0,0,0,.45Q247.27,576,247.27,663.36q0,87.66,70.13,87.66v70.13h0q-129.3,0-134.37-116.57-4.75-109.38-67.51-157.85a7.72,7.72,0,0,1,0-12.23Q178.27,486,183,376.66Z" transform="translate(-76.4 -22.02)"/></g><g class="cls-3"><path class="cls-5" d="M893,704.93q-4.92,112.89-126.38,116.45a7.73,7.73,0,0,1-8-7.75V758.84a7.78,7.78,0,0,1,7.29-7.73q62.84-4.43,62.84-87.41,0-81.45,30.27-117.49a8.12,8.12,0,0,0,0-10.49q-30.27-36-30.27-117.49,0-83-62.84-87.41a7.78,7.78,0,0,1-7.29-7.73v-54.8a7.72,7.72,0,0,1,8-7.74Q888.12,264.09,893,377q4.76,109.37,67.51,157.85a7.72,7.72,0,0,1,0,12.23Q897.78,595.54,893,704.93Z" transform="translate(-76.4 -22.02)"/></g><path class="cls-6" d="M566.88,305.09q-92.19,0-157.25,64.47-65.46,64.85-65.46,156.56t65.26,156.37q65.26,64.65,157.84,64.65,83.65,0,144.86-52.95L782.62,764Q692,845.38,567.27,845.38q-133.63,0-227.94-93.44T245,526.12q0-132.39,94.51-226,94.13-93.24,227.36-93.24h.39q133.62,0,228.13,93.24,6.2,6.15,12,12.67L737.3,382.22q-5.81-6.53-12-12.66-65.46-64.47-158-64.47Z" transform="translate(-76.4 -22.02)"/></g></svg>